<?xml version="1.0" encoding="UTF-8" standalone="no"?>
<svg
   width="164.81676mm"
   height="161.34853mm"
   viewBox="0 0 164.81676 161.34853"
   version="1.1"
   id="svg1"
   sodipodi:docname="dt-manager-logo.svg"
   xml:space="preserve"
   inkscape:version="1.3.2 (091e20e, 2023-11-25, custom)"
   xmlns:inkscape="http://www.inkscape.org/namespaces/inkscape"
   xmlns:sodipodi="http://sodipodi.sourceforge.net/DTD/sodipodi-0.dtd"
   xmlns:xlink="http://www.w3.org/1999/xlink"
   xmlns="http://www.w3.org/2000/svg"
   xmlns:svg="http://www.w3.org/2000/svg"><defs
     id="defs1"><linearGradient
       id="linearGradient3"
       inkscape:collect="always"><stop
         style="stop-color:#7929d2;stop-opacity:1;"
         offset="0"
         id="stop3" /><stop
         style="stop-color:#12a2fa;stop-opacity:1;"
         offset="1"
         id="stop4" /></linearGradient><linearGradient
       inkscape:collect="always"
       xlink:href="#linearGradient3"
       id="linearGradient4"
       x1="43.388637"
       y1="168.00576"
       x2="293.05591"
       y2="165.88449"
       gradientUnits="userSpaceOnUse" /></defs><sodipodi:namedview
     id="namedview1"
     pagecolor="#ffffff"
     bordercolor="#000000"
     borderopacity="0.25"
     inkscape:showpageshadow="2"
     inkscape:pageopacity="0.0"
     inkscape:pagecheckerboard="0"
     inkscape:deskcolor="#d1d1d1"
     inkscape:document-units="mm"
     inkscape:zoom="0.3527874"
     inkscape:cx="384.08401"
     inkscape:cy="77.95063"
     inkscape:window-width="2560"
     inkscape:window-height="1494"
     inkscape:window-x="-11"
     inkscape:window-y="-11"
     inkscape:window-maximized="1"
     inkscape:current-layer="g1" /><g
     transform="translate(-43.388637,-87.331497)"
     id="g1"><path
       d="m 78.608709,98.210936 c -7.559644,0 -10.234875,0.08897 -11.840104,0.394808 -6.26503,1.193661 -11.0831,6.220006 -11.993066,12.511896 -0.338845,2.34292 -0.354586,109.46087 -0.01654,112.40038 0.767436,6.67327 5.382631,12.20067 11.65562,13.95935 2.171462,0.60879 2.296884,0.61559 12.488643,0.65836 l 9.445935,0.0398 12.32948,-0.13229 h 41.275 41.275 l 1.98438,-0.62322 c 5.32045,-1.67031 9.40235,-5.64164 11.18846,-10.88616 l 0.58549,-1.71979 0.0729,-34.72656 0.0729,-34.72656 0.01,-12.7 -0.0775,-15.94115 -0.0775,-15.94115 -0.65164,-1.85208 c -1.36624,-3.88416 -4.50491,-7.41168 -8.14731,-9.157063 -3.37252,-1.616062 -1.36726,-1.548886 -46.43282,-1.55391 l -41.20885,-0.0047 H 88.375038 Z"
       style="fill:#f9f9f9;stroke:#ffffff;stroke-width:0.264999;stroke-linecap:round;stroke-linejoin:round;paint-order:stroke markers fill"
       id="path10" /><path
       d="m 126.02855,87.335114 c -30.357307,-0.0246 -60.779004,0.07003 -62.259245,0.307475 -9.598182,1.539611 -17.91093,9.577653 -19.881474,19.223631 l -0.499194,2.44275 0.07028,59.34004 0.06976,59.34005 0.58136,2.03657 c 2.728552,9.56582 10.297399,16.58176 19.791557,18.34513 1.490061,0.27677 13.772943,0.33533 62.838543,0.29973 l 60.98646,-0.0439 2.10891,-0.61443 c 8.83127,-2.57224 15.30907,-9.11246 17.47284,-17.64182 0.92249,-3.63619 0.95138,-5.77429 0.86558,-64.16146 l -0.0853,-57.81146 -0.58291,-2.17196 c -2.59788,-9.673854 -9.93034,-16.586402 -19.60397,-18.482072 -1.22284,-0.239631 -31.51591,-0.383642 -61.87323,-0.408244 z M 78.608709,98.210936 h 9.766329 12.171872 l 41.20885,0.0047 c 45.06556,0.005 43.0603,-0.06215 46.43282,1.55391 3.6424,1.745383 6.78107,5.272903 8.14731,9.157063 l 0.65164,1.85208 0.0775,15.94115 0.0775,15.94115 -0.01,12.7 -0.0729,34.72656 -0.0729,34.72656 -0.58549,1.71979 c -1.78611,5.24452 -5.86801,9.21585 -11.18846,10.88616 l -1.98438,0.62322 h -41.275 -41.275 l -12.32948,0.13229 -9.445935,-0.0398 c -10.191759,-0.0428 -10.317181,-0.0496 -12.488643,-0.65836 -6.272989,-1.75868 -10.888184,-7.28608 -11.65562,-13.95935 -0.338049,-2.93951 -0.322308,-110.05746 0.01654,-112.40038 0.909966,-6.29189 5.728036,-11.318235 11.993066,-12.511896 1.605229,-0.305835 4.28046,-0.394808 11.840104,-0.394808 z"
       style="fill:url(#linearGradient4)"
       id="path9" /><path
       fill="none"
       stroke="#000000"
       stroke-width="3.00027"
       d="M 83.975305,219.72427 H 167.08969"
       stroke-linecap="round"
       id="path1-5"
       sodipodi:nodetypes="cc"
       style="fill:#f9f9f9;fill-opacity:1;stroke-width:5;stroke-dasharray:none" /><path
       fill="none"
       stroke="#000000"
       stroke-width="2.93361"
       d="M 111.50476,219.56436 V 195.4288 L 92.969701,184.97449"
       id="path2"
       style="fill:#f9f9f9;fill-opacity:1;stroke-width:5;stroke-dasharray:none" /><path
       fill="none"
       stroke="#000000"
       stroke-width="3.33365"
       d="M 125.13937,166.73945 102.8973,154.04496"
       id="path3"
       style="fill:#f9f9f9;fill-opacity:1;stroke-width:5;stroke-dasharray:none" /><path
       fill="none"
       stroke="#000000"
       stroke-width="3.00027"
       d="M 125.80609,218.79097 V 141.5638"
       id="path4"
       style="fill:#f9f9f9;fill-opacity:1;stroke-width:5;stroke-dasharray:none" /><path
       fill="none"
       stroke="#000000"
       stroke-width="2.93361"
       d="m 139.50736,218.9243 v -51.25142 l 17.90833,-9.83424"
       id="path5"
       style="fill:#f9f9f9;fill-opacity:1;stroke-width:5;stroke-dasharray:none" /><circle
       cx="92.341835"
       cy="146.52983"
       r="13.739774"
       fill="#8b63a9"
       id="circle6"
       style="stroke-width:0.666728" /><circle
       cx="125.88129"
       cy="128.52689"
       r="13.739774"
       fill="#0cb2dd"
       id="circle7"
       style="stroke-width:0.666728" /><circle
       cx="169.64653"
       cy="152.78049"
       r="13.739774"
       fill="#f48414"
       id="circle8"
       style="stroke-width:0.666728" /><circle
       cx="81.947487"
       cy="179.55551"
       r="13.739774"
       fill="#009641"
       id="circle9"
       style="stroke-width:0.666728" /></g></svg>
