<?xml version="1.0" encoding="UTF-8" standalone="no"?>
<svg
   width="164.81676mm"
   height="161.34853mm"
   viewBox="0 0 164.81676 161.34853"
   version="1.1"
   id="svg1"
   sodipodi:docname="DT-Manager-Logo.svg"
   xml:space="preserve"
   inkscape:version="1.3.2 (091e20e, 2023-11-25, custom)"
   xmlns:inkscape="http://www.inkscape.org/namespaces/inkscape"
   xmlns:sodipodi="http://sodipodi.sourceforge.net/DTD/sodipodi-0.dtd"
   xmlns:xlink="http://www.w3.org/1999/xlink"
   xmlns="http://www.w3.org/2000/svg"
   xmlns:svg="http://www.w3.org/2000/svg"><defs
     id="defs1"><linearGradient
       id="linearGradient3"
       inkscape:collect="always"><stop
         style="stop-color:#7929d2;stop-opacity:1;"
         offset="0"
         id="stop3" /><stop
         style="stop-color:#12a2fa;stop-opacity:1;"
         offset="1"
         id="stop4" /></linearGradient><linearGradient
       inkscape:collect="always"
       xlink:href="#linearGradient3"
       id="linearGradient4"
       x1="43.388637"
       y1="168.00576"
       x2="293.05591"
       y2="165.88449"
       gradientUnits="userSpaceOnUse" /></defs><sodipodi:namedview
     id="namedview1"
     pagecolor="#ffffff"
     bordercolor="#000000"
     borderopacity="0.25"
     inkscape:showpageshadow="2"
     inkscape:pageopacity="0.0"
     inkscape:pagecheckerboard="0"
     inkscape:deskcolor="#d1d1d1"
     inkscape:document-units="mm"
     inkscape:zoom="0.3527874"
     inkscape:cx="-773.83715"
     inkscape:cy="35.432104"
     inkscape:window-width="2560"
     inkscape:window-height="1494"
     inkscape:window-x="-11"
     inkscape:window-y="-11"
     inkscape:window-maximized="1"
     inkscape:current-layer="g1" /><g
     transform="translate(-43.388637,-87.331497)"
     id="g1"><path
       style="fill:url(#linearGradient4)"
       d="m 63.901793,248.3709 c -9.494167,-1.76337 -17.06336,-8.77923 -19.791915,-18.34506 l -0.581001,-2.03689 -0.07012,-59.33995 -0.07012,-59.33996 0.499052,-2.4429 c 1.970546,-9.64599 10.28362,-17.683746 19.881812,-19.223358 2.960484,-0.474881 121.686769,-0.378663 124.132449,0.100599 9.67364,1.895672 17.00577,8.808381 19.60365,18.482249 l 0.58319,2.17166 0.0849,57.81146 c 0.0858,58.38723 0.057,60.52526 -0.86549,64.16145 -2.16377,8.52937 -8.64141,15.0698 -17.47269,17.64204 l -2.10877,0.61421 -60.98645,0.0442 c -49.065648,0.0356 -61.348476,-0.023 -62.838539,-0.29977 z m 36.777077,-10.32783 h 41.275 41.275 l 1.98438,-0.62298 c 5.32046,-1.67031 9.40214,-5.64187 11.18825,-10.88639 l 0.5857,-1.7198 0.0727,-34.72656 0.0728,-34.72656 0.01,-12.70001 -0.0777,-15.94114 -0.0777,-15.94115 -0.65146,-1.85208 c -1.36624,-3.88417 -4.50466,-7.41166 -8.14706,-9.157041 -3.37253,-1.616064 -1.36763,-1.548966 -46.43324,-1.55399 l -41.20886,-0.0046 -12.171797,6.6e-5 h -9.766308 c -7.559652,0 -10.234873,0.08928 -11.840103,0.395116 -6.265037,1.193662 -11.082738,6.219889 -11.992705,12.511789 -0.338845,2.34292 -0.35504,109.46092 -0.01699,112.40043 0.767436,6.67328 5.3827,12.20074 11.655695,13.95942 2.171464,0.60879 2.296995,0.61541 12.488764,0.65818 l 9.446057,0.0396 z"
       id="path1"
       sodipodi:nodetypes="cscccsssscccscccccccssccccccsssccscsssccc" /><g
       id="g4"><path
         fill="none"
         stroke="#000000"
         stroke-width="3.00027"
         d="M 83.975305,219.72427 H 167.08969"
         stroke-linecap="round"
         id="path1-5"
         sodipodi:nodetypes="cc" /><path
         fill="none"
         stroke="#000000"
         stroke-width="2.93361"
         d="M 111.50476,219.56436 V 195.4288 L 92.969701,184.97449"
         id="path2" /><path
         fill="none"
         stroke="#000000"
         stroke-width="3.33365"
         d="M 125.13937,166.73945 102.8973,154.04496"
         id="path3" /><path
         fill="none"
         stroke="#000000"
         stroke-width="3.00027"
         d="M 125.80609,218.79097 V 141.5638"
         id="path4" /><path
         fill="none"
         stroke="#000000"
         stroke-width="2.93361"
         d="m 139.50736,218.9243 v -51.25142 l 17.90833,-9.83424"
         id="path5" /></g><circle
       cx="92.341843"
       cy="146.52985"
       r="13.739774"
       fill="#8b63a9"
       id="circle6"
       style="stroke-width:0.666728" /><circle
       cx="125.88132"
       cy="128.5269"
       r="13.739774"
       fill="#0cb2dd"
       id="circle7"
       style="stroke-width:0.666728" /><circle
       cx="169.64655"
       cy="152.7805"
       r="13.739774"
       fill="#f48414"
       id="circle8"
       style="stroke-width:0.666728" /><circle
       cx="81.947487"
       cy="179.55553"
       r="13.739774"
       fill="#009641"
       id="circle9"
       style="stroke-width:0.666728" /></g></svg>
